<svg width="149" height="50" viewBox="0 0 149 50" fill="none" xmlns="http://www.w3.org/2000/svg">
<g clip-path="url(#clip0_399_6544)">
<path d="M137.135 3.97995e-05H11.8721C11.4155 3.97995e-05 10.9644 3.97996e-05 10.509 0.0025301C10.1278 0.00502041 9.74965 0.0122547 9.36479 0.0183435C8.52869 0.0281825 7.69455 0.101739 6.86963 0.238374C6.04587 0.377984 5.24791 0.641188 4.50274 1.01908C3.75849 1.40018 3.07845 1.89537 2.48728 2.4867C1.89301 3.07636 1.39764 3.75793 1.02022 4.5052C0.641752 5.25098 0.379324 6.05016 0.241995 6.87512C0.103361 7.69905 0.028761 8.53247 0.0188641 9.36792C0.00730904 9.74968 0.0060888 10.1327 0 10.5145V39.2953C0.0060888 39.6819 0.00730904 40.0565 0.0188641 40.4432C0.028764 41.2786 0.103364 42.112 0.241995 42.9359C0.378945 43.7613 0.641388 44.561 1.02022 45.307C1.39747 46.0519 1.89291 46.7307 2.48728 47.3171C3.0762 47.911 3.75669 48.4066 4.50274 48.7847C5.2479 49.1636 6.04578 49.4284 6.86963 49.5702C7.69469 49.7057 8.52874 49.7793 9.36479 49.7903C9.74965 49.7988 10.1278 49.8036 10.509 49.8036C10.9644 49.8061 11.4156 49.8061 11.8721 49.8061H137.135C137.582 49.8061 138.037 49.8061 138.484 49.8036C138.864 49.8036 139.253 49.7988 139.632 49.7903C140.467 49.7799 141.299 49.7063 142.123 49.5702C142.949 49.4274 143.75 49.1627 144.499 48.7847C145.244 48.4063 145.924 47.9108 146.512 47.3171C147.105 46.7284 147.602 46.0501 147.983 45.307C148.359 44.5604 148.619 43.7608 148.754 42.9359C148.893 42.1119 148.97 41.2787 148.985 40.4432C148.99 40.0565 148.99 39.6819 148.99 39.2953C149 38.8429 149 38.3931 149 37.9334V11.874C149 11.418 149 10.9656 148.99 10.5145C148.99 10.1327 148.99 9.74968 148.985 9.36787C148.97 8.53235 148.893 7.69911 148.754 6.87507C148.619 6.05059 148.359 5.25147 147.983 4.50515C147.215 3.00733 145.996 1.78811 144.499 1.01897C143.75 0.642 142.949 0.378865 142.123 0.238262C141.299 0.101025 140.467 0.0274428 139.632 0.0181692C139.253 0.0120929 138.864 0.00479628 138.484 0.00236823C138.037 -0.00012207 137.582 -0.00012207 137.135 -0.00012207V3.97995e-05Z" fill="black"/>
<path d="M10.5151 48.7164C10.1357 48.7164 9.76552 48.7116 9.38913 48.7031C8.60939 48.693 7.83148 48.6251 7.06176 48.5C6.34405 48.3764 5.64877 48.1465 4.99887 47.8178C4.35493 47.4919 3.7676 47.0645 3.25939 46.552C2.74382 46.0456 2.31459 45.4582 1.9887 44.8131C1.65922 44.1639 1.4312 43.468 1.31258 42.7497C1.18449 41.9778 1.11518 41.1973 1.10527 40.415C1.09737 40.1524 1.08704 39.2781 1.08704 39.2781V10.5143C1.08704 10.5143 1.09804 9.65343 1.10533 9.4005C1.11482 8.61939 1.18372 7.84014 1.31144 7.06949C1.43027 6.34919 1.65847 5.65128 1.98813 4.99992C2.31282 4.35532 2.73967 3.7675 3.25213 3.25926C3.76402 2.74618 4.35322 2.31658 4.99826 1.98613C5.64667 1.65851 6.34063 1.43019 7.05689 1.30884C7.82913 1.18254 8.60975 1.11425 9.39219 1.10456L10.5157 1.08936H138.478L139.615 1.10517C140.391 1.11438 141.164 1.18206 141.929 1.30762C142.653 1.4305 143.354 1.6604 144.01 1.98977C145.302 2.65574 146.353 3.70936 147.017 5.00296C147.341 5.64982 147.566 6.34204 147.683 7.05611C147.812 7.83309 147.885 8.61847 147.9 9.40598C147.903 9.7586 147.903 10.1374 147.903 10.5143C147.913 10.9813 147.913 11.4257 147.913 11.8738V37.9332C147.913 38.3855 147.913 38.8269 147.903 39.272C147.903 39.6769 147.903 40.0478 147.898 40.4296C147.884 41.203 147.813 41.9744 147.686 42.7375C147.569 43.461 147.343 44.1623 147.013 44.8169C146.685 45.4549 146.258 46.0372 145.749 46.5423C145.24 47.0575 144.652 47.4874 144.006 47.8154C143.352 48.1466 142.652 48.3774 141.929 48.5C141.16 48.6257 140.382 48.6936 139.602 48.7031C139.237 48.7116 138.855 48.7164 138.484 48.7164L137.135 48.7189L10.5151 48.7164Z" fill="black"/>
<path d="M30.8407 25.277C30.8541 24.2377 31.1301 23.2187 31.6432 22.3148C32.1562 21.4109 32.8895 20.6514 33.775 20.107C33.2125 19.3037 32.4704 18.6426 31.6078 18.1762C30.7451 17.7099 29.7855 17.4511 28.8054 17.4204C26.7144 17.2009 24.6874 18.6716 23.6219 18.6716C22.5358 18.6716 20.8953 17.4422 19.1288 17.4785C17.9861 17.5155 16.8725 17.8477 15.8965 18.443C14.9204 19.0382 14.1152 19.8762 13.5593 20.8751C11.1512 25.0444 12.9474 31.1719 15.2542 34.542C16.4083 36.1923 17.7572 38.0357 19.5221 37.9703C21.2492 37.8987 21.8943 36.869 23.979 36.869C26.0444 36.869 26.6496 37.9703 28.4504 37.9288C30.3036 37.8987 31.4713 36.2712 32.5849 34.6053C33.4142 33.4294 34.0523 32.1298 34.4756 30.7546C33.3989 30.2992 32.4801 29.537 31.8337 28.5629C31.1873 27.5888 30.8419 26.446 30.8407 25.277Z" fill="white"/>
<path d="M27.4392 15.2041C28.4497 13.9911 28.9475 12.4319 28.8269 10.8578C27.2832 11.0199 25.8571 11.7578 24.833 12.9243C24.3323 13.4941 23.9488 14.1571 23.7044 14.8752C23.4601 15.5934 23.3597 16.3527 23.4089 17.1097C24.1811 17.1176 24.945 16.9503 25.6431 16.6202C26.3412 16.2901 26.9553 15.806 27.4392 15.2041Z" fill="white"/>
<path d="M52.6722 33.7924H46.7784L45.363 37.9717H42.8666L48.4491 22.5094H51.0427L56.6253 37.9717H54.0863L52.6722 33.7924ZM47.3888 31.8639H52.0606L49.7575 25.0812H49.6931L47.3888 31.8639Z" fill="white"/>
<path d="M68.6812 32.3358C68.6812 35.839 66.8062 38.0897 63.9766 38.0897C63.2599 38.1272 62.547 37.9621 61.9197 37.6133C61.2924 37.2645 60.776 36.7461 60.4297 36.1174H60.3761V41.7011H58.0621V26.6985H60.302V28.5735H60.3445C60.7068 27.9479 61.2319 27.4322 61.864 27.0812C62.4961 26.7303 63.2115 26.5573 63.9341 26.5806C66.7952 26.5806 68.6812 28.8423 68.6812 32.3358ZM66.3028 32.3358C66.3028 30.0534 65.1233 28.5529 63.3237 28.5529C61.5556 28.5529 60.3664 30.085 60.3664 32.3358C60.3664 34.6072 61.5556 36.1284 63.3237 36.1284C65.1233 36.1284 66.3028 34.6388 66.3028 32.3358Z" fill="white"/>
<path d="M81.0889 32.3358C81.0889 35.839 79.2139 38.0897 76.3844 38.0897C75.6676 38.1272 74.9547 37.9621 74.3274 37.6133C73.7001 37.2645 73.1837 36.7461 72.8374 36.1174H72.7838V41.7011H70.4698V26.6985H72.7097V28.5735H72.7522C73.1145 27.9479 73.6396 27.4322 74.2717 27.0812C74.9038 26.7303 75.6192 26.5573 76.3418 26.5806C79.203 26.5806 81.0889 28.8423 81.0889 32.3358ZM78.7105 32.3358C78.7105 30.0534 77.531 28.5529 75.7314 28.5529C73.9634 28.5529 72.7741 30.085 72.7741 32.3358C72.7741 34.6072 73.9634 36.1284 75.7314 36.1284C77.531 36.1284 78.7105 34.6388 78.7105 32.3358H78.7105Z" fill="white"/>
<path d="M89.2899 33.6635C89.4613 35.1969 90.9509 36.2036 92.9864 36.2036C94.9369 36.2036 96.3401 35.1968 96.3401 33.8142C96.3401 32.6141 95.4938 31.8955 93.4898 31.403L91.4859 30.9202C88.6467 30.2344 87.3285 28.9066 87.3285 26.7519C87.3285 24.0841 89.6535 22.2516 92.9548 22.2516C96.2221 22.2516 98.4619 24.0841 98.5373 26.7519H96.2014C96.0616 25.2088 94.786 24.2774 92.922 24.2774C91.0579 24.2774 89.7823 25.2198 89.7823 26.5914C89.7823 27.6845 90.597 28.3278 92.59 28.8202L94.2936 29.2385C97.466 29.9888 98.7841 31.2631 98.7841 33.5248C98.7841 36.4176 96.4799 38.2294 92.8149 38.2294C89.3859 38.2294 87.0707 36.4601 86.9211 33.6634L89.2899 33.6635Z" fill="white"/>
<path d="M103.779 24.0306V26.6985H105.922V28.5309H103.779V34.7458C103.779 35.7112 104.208 36.1611 105.15 36.1611C105.405 36.1567 105.659 36.1388 105.911 36.1076V37.9291C105.488 38.0083 105.057 38.0441 104.626 38.0361C102.344 38.0361 101.454 37.1789 101.454 34.9926V28.5309H99.8145V26.6985H101.454V24.0306H103.779Z" fill="white"/>
<path d="M107.164 32.3357C107.164 28.7887 109.253 26.5598 112.51 26.5598C115.779 26.5598 117.858 28.7886 117.858 32.3357C117.858 35.8924 115.79 38.1115 112.51 38.1115C109.232 38.1115 107.164 35.8924 107.164 32.3357ZM115.5 32.3357C115.5 29.9025 114.385 28.4665 112.51 28.4665C110.635 28.4665 109.522 29.9135 109.522 32.3357C109.522 34.7785 110.635 36.2037 112.51 36.2037C114.385 36.2037 115.5 34.7785 115.5 32.3357H115.5Z" fill="white"/>
<path d="M119.766 26.6984H121.973V28.6172H122.027C122.176 28.0179 122.527 27.4883 123.021 27.1174C123.515 26.7465 124.121 26.5569 124.738 26.5805C125.005 26.5795 125.271 26.6085 125.531 26.6668V28.8312C125.194 28.7283 124.843 28.6811 124.491 28.6914C124.155 28.6777 123.82 28.737 123.509 28.8651C123.198 28.9932 122.918 29.1871 122.689 29.4336C122.46 29.68 122.287 29.973 122.182 30.2926C122.077 30.6122 122.042 30.9508 122.08 31.285V37.9717H119.766L119.766 26.6984Z" fill="white"/>
<path d="M136.2 34.6606C135.889 36.7071 133.896 38.1115 131.346 38.1115C128.066 38.1115 126.031 35.9143 126.031 32.3892C126.031 28.8531 128.077 26.5598 131.248 26.5598C134.367 26.5598 136.329 28.7023 136.329 32.1204V32.9133H128.367V33.0531C128.33 33.468 128.382 33.8859 128.519 34.2792C128.656 34.6725 128.876 35.032 129.162 35.3341C129.449 35.6361 129.797 35.8736 130.183 36.0309C130.568 36.1881 130.983 36.2615 131.399 36.2462C131.946 36.2975 132.495 36.1708 132.964 35.8851C133.433 35.5994 133.797 35.17 134.003 34.6606L136.2 34.6606ZM128.378 31.296H134.014C134.034 30.923 133.978 30.5497 133.847 30.1995C133.717 29.8494 133.516 29.5299 133.256 29.2613C132.997 28.9926 132.684 28.7805 132.339 28.6383C131.993 28.4961 131.622 28.4268 131.248 28.4348C130.872 28.4326 130.498 28.505 130.149 28.6479C129.801 28.7907 129.484 29.0012 129.217 29.2673C128.95 29.5333 128.738 29.8495 128.594 30.1977C128.45 30.5459 128.377 30.9192 128.378 31.296V31.296Z" fill="white"/>
<path d="M47.0999 10.8716C47.585 10.8368 48.0718 10.9101 48.5252 11.0862C48.9786 11.2623 49.3872 11.5368 49.7217 11.89C50.0561 12.2431 50.308 12.6661 50.4591 13.1284C50.6103 13.5907 50.657 14.0808 50.5958 14.5633C50.5958 16.9368 49.313 18.3012 47.0999 18.3012H44.4163V10.8716H47.0999ZM45.5702 17.2505H46.971C47.3177 17.2712 47.6646 17.2144 47.9865 17.0841C48.3084 16.9539 48.5972 16.7535 48.8319 16.4975C49.0666 16.2415 49.2413 15.9365 49.3432 15.6045C49.4452 15.2725 49.4718 14.922 49.4212 14.5784C49.4681 14.2362 49.4388 13.8878 49.3353 13.5583C49.2318 13.2287 49.0567 12.9262 48.8225 12.6722C48.5884 12.4183 48.3009 12.2193 47.9808 12.0895C47.6607 11.9598 47.3159 11.9024 46.971 11.9215H45.5702V17.2505Z" fill="white"/>
<path d="M51.8996 15.4953C51.8643 15.1269 51.9065 14.7551 52.0233 14.4039C52.1402 14.0527 52.3291 13.7297 52.5781 13.4558C52.8271 13.1819 53.1305 12.9631 53.469 12.8133C53.8075 12.6635 54.1736 12.5862 54.5437 12.5862C54.9139 12.5862 55.2799 12.6635 55.6184 12.8133C55.9569 12.9631 56.2604 13.1819 56.5093 13.4558C56.7583 13.7297 56.9473 14.0527 57.0641 14.4039C57.1809 14.7551 57.2231 15.1269 57.1878 15.4953C57.2238 15.8642 57.1821 16.2364 57.0656 16.5882C56.949 16.94 56.7602 17.2635 56.5112 17.538C56.2621 17.8124 55.9585 18.0317 55.6196 18.1818C55.2808 18.3319 54.9143 18.4094 54.5437 18.4094C54.1731 18.4094 53.8066 18.3319 53.4678 18.1818C53.129 18.0317 52.8253 17.8124 52.5763 17.538C52.3272 17.2635 52.1384 16.94 52.0219 16.5882C51.9053 16.2364 51.8637 15.8642 51.8996 15.4953ZM56.0497 15.4953C56.0497 14.28 55.5037 13.5692 54.5455 13.5692C53.5837 13.5692 53.0426 14.28 53.0426 15.4953C53.0426 16.7204 53.5837 17.4257 54.5455 17.4257C55.5037 17.4257 56.0497 16.7156 56.0497 15.4953H56.0497Z" fill="white"/>
<path d="M64.2171 18.3013H63.0692L61.9104 14.1719H61.8228L60.6689 18.3013H59.5319L57.9865 12.6945H59.1088L60.1132 16.9728H60.1959L61.3486 12.6945H62.4102L63.5629 16.9728H63.6504L64.65 12.6945H65.7565L64.2171 18.3013Z" fill="white"/>
<path d="M67.0559 12.6943H68.1211V13.585H68.2038C68.3441 13.2651 68.5806 12.9969 68.8806 12.8179C69.1805 12.6388 69.5288 12.5578 69.877 12.5861C70.1498 12.5656 70.4237 12.6067 70.6785 12.7064C70.9332 12.8062 71.1623 12.9619 71.3486 13.1622C71.535 13.3625 71.674 13.6021 71.7551 13.8634C71.8363 14.1247 71.8577 14.4008 71.8176 14.6715V18.3011H70.7111V14.9493C70.7111 14.0483 70.3196 13.6002 69.5012 13.6002C69.316 13.5916 69.1311 13.6231 68.9592 13.6926C68.7873 13.7621 68.6325 13.868 68.5053 14.003C68.3781 14.1379 68.2817 14.2988 68.2225 14.4745C68.1633 14.6502 68.1428 14.8367 68.1624 15.0211V18.3011H67.0559L67.0559 12.6943Z" fill="white"/>
<path d="M73.5808 10.5057H74.6873V18.3013H73.5808V10.5057Z" fill="white"/>
<path d="M76.2263 15.4954C76.1911 15.1269 76.2333 14.7552 76.3502 14.4039C76.467 14.0527 76.656 13.7298 76.905 13.4558C77.154 13.1819 77.4575 12.9631 77.796 12.8133C78.1345 12.6635 78.5006 12.5862 78.8708 12.5862C79.2409 12.5862 79.607 12.6635 79.9455 12.8133C80.2841 12.9631 80.5875 13.1819 80.8365 13.4558C81.0855 13.7298 81.2745 14.0527 81.3914 14.4039C81.5082 14.7552 81.5504 15.1269 81.5152 15.4954C81.5511 15.8643 81.5094 16.2366 81.3928 16.5884C81.2762 16.9401 81.0874 17.2636 80.8383 17.5381C80.5893 17.8125 80.2856 18.0318 79.9467 18.1819C79.6079 18.332 79.2414 18.4095 78.8708 18.4095C78.5002 18.4095 78.1337 18.332 77.7948 18.1819C77.456 18.0318 77.1523 17.8125 76.9032 17.5381C76.6542 17.2636 76.4653 16.9401 76.3487 16.5884C76.2322 16.2366 76.1905 15.8643 76.2263 15.4954ZM80.3764 15.4954C80.3764 14.2801 79.8305 13.5693 78.8723 13.5693C77.9105 13.5693 77.3694 14.2801 77.3694 15.4954C77.3694 16.7205 77.9105 17.4258 78.8723 17.4258C79.8305 17.4258 80.3764 16.7157 80.3764 15.4954H80.3764Z" fill="white"/>
<path d="M82.6796 16.7156C82.6796 15.7063 83.431 15.1245 84.7649 15.0418L86.2837 14.9543V14.4703C86.2837 13.8781 85.8922 13.5438 85.1358 13.5438C84.5181 13.5438 84.0901 13.7705 83.9673 14.1669H82.896C83.0091 13.2039 83.915 12.5862 85.1869 12.5862C86.5926 12.5862 87.3854 13.286 87.3854 14.4703V18.3012H86.3202V17.5133H86.2326C86.0549 17.7959 85.8054 18.0263 85.5095 18.181C85.2136 18.3357 84.882 18.409 84.5485 18.3936C84.3131 18.4181 84.0752 18.393 83.8502 18.3199C83.6251 18.2468 83.4178 18.1274 83.2417 17.9693C83.0657 17.8112 82.9247 17.6179 82.8278 17.402C82.731 17.1861 82.6805 16.9522 82.6796 16.7156ZM86.2837 16.2365V15.7678L84.9145 15.8553C84.1424 15.907 83.7922 16.1696 83.7922 16.6639C83.7922 17.1685 84.2299 17.4622 84.8319 17.4622C85.0082 17.4801 85.1864 17.4622 85.3557 17.4098C85.5251 17.3574 85.6822 17.2715 85.8176 17.1571C85.9531 17.0428 86.0641 16.9023 86.1442 16.7442C86.2243 16.586 86.2717 16.4134 86.2837 16.2365Z" fill="white"/>
<path d="M88.8396 15.4955C88.8396 13.7238 89.7504 12.6015 91.167 12.6015C91.5174 12.5853 91.8651 12.6693 92.1696 12.8434C92.4741 13.0176 92.7227 13.2749 92.8863 13.5851H92.969V10.5057H94.0756V18.3013H93.0152V17.4155H92.9277C92.7514 17.7236 92.4941 17.9777 92.1838 18.1501C91.8734 18.3226 91.5218 18.4068 91.167 18.3937C89.7406 18.3938 88.8396 17.2714 88.8396 15.4955ZM89.9826 15.4955C89.9826 16.6847 90.5432 17.4003 91.4807 17.4003C92.4134 17.4003 92.9897 16.6744 92.9897 15.5004C92.9897 14.3318 92.4073 13.5955 91.4807 13.5955C90.5493 13.5955 89.9826 14.316 89.9826 15.4955H89.9826Z" fill="white"/>
<path d="M98.6536 15.4953C98.6184 15.1269 98.6605 14.7551 98.7774 14.4039C98.8942 14.0527 99.0832 13.7297 99.3321 13.4558C99.5811 13.1819 99.8845 12.9631 100.223 12.8133C100.562 12.6635 100.928 12.5862 101.298 12.5862C101.668 12.5862 102.034 12.6635 102.372 12.8133C102.711 12.9631 103.014 13.1819 103.263 13.4558C103.512 13.7297 103.701 14.0527 103.818 14.4039C103.935 14.7551 103.977 15.1269 103.942 15.4953C103.978 15.8642 103.936 16.2364 103.82 16.5882C103.703 16.94 103.514 17.2635 103.265 17.538C103.016 17.8124 102.712 18.0317 102.374 18.1818C102.035 18.3319 101.668 18.4094 101.298 18.4094C100.927 18.4094 100.561 18.3319 100.222 18.1818C99.883 18.0317 99.5793 17.8124 99.3303 17.538C99.0813 17.2635 98.8924 16.94 98.7759 16.5882C98.6593 16.2364 98.6177 15.8642 98.6536 15.4953ZM102.804 15.4953C102.804 14.28 102.258 13.5692 101.3 13.5692C100.338 13.5692 99.7967 14.28 99.7967 15.4953C99.7967 16.7204 100.338 17.4257 101.3 17.4257C102.258 17.4257 102.804 16.7156 102.804 15.4953Z" fill="white"/>
<path d="M105.427 12.6943H106.492V13.585H106.575C106.715 13.2651 106.952 12.9969 107.252 12.8179C107.552 12.6388 107.9 12.5578 108.248 12.5861C108.521 12.5656 108.795 12.6067 109.05 12.7064C109.304 12.8062 109.533 12.9619 109.72 13.1622C109.906 13.3625 110.045 13.6021 110.126 13.8634C110.208 14.1247 110.229 14.4008 110.189 14.6715V18.3011H109.082V14.9493C109.082 14.0483 108.691 13.6002 107.872 13.6002C107.687 13.5916 107.502 13.6231 107.33 13.6926C107.159 13.7621 107.004 13.868 106.877 14.003C106.749 14.1379 106.653 14.2988 106.594 14.4745C106.535 14.6502 106.514 14.8367 106.534 15.0211V18.3011H105.427V12.6943Z" fill="white"/>
<path d="M116.441 11.2985V12.7199H117.656V13.652H116.441V16.535C116.441 17.1224 116.683 17.3795 117.234 17.3795C117.375 17.3791 117.516 17.3705 117.656 17.354V18.2757C117.457 18.3112 117.256 18.3301 117.054 18.3322C115.823 18.3322 115.333 17.8993 115.333 16.8183V13.6519H114.443V12.7199H115.333V11.2985H116.441Z" fill="white"/>
<path d="M119.167 10.5057H120.264V13.5955H120.352C120.499 13.2726 120.742 13.0029 121.048 12.8232C121.354 12.6435 121.708 12.5624 122.061 12.5911C122.333 12.5764 122.604 12.6217 122.856 12.7238C123.108 12.826 123.334 12.9825 123.519 13.1821C123.703 13.3818 123.841 13.6196 123.923 13.8788C124.005 14.138 124.029 14.412 123.992 14.6814V18.3013H122.885V14.9544C122.885 14.0588 122.468 13.6052 121.686 13.6052C121.496 13.5896 121.304 13.6158 121.125 13.6818C120.946 13.7479 120.784 13.8523 120.649 13.9877C120.515 14.1231 120.412 14.2862 120.347 14.4657C120.282 14.6452 120.257 14.8366 120.274 15.0267V18.3013H119.168L119.167 10.5057Z" fill="white"/>
<path d="M130.444 16.7874C130.294 17.2999 129.968 17.7431 129.524 18.0397C129.08 18.3362 128.545 18.4671 128.015 18.4095C127.645 18.4193 127.278 18.3485 126.939 18.2022C126.599 18.0559 126.296 17.8374 126.05 17.5621C125.803 17.2867 125.62 16.9611 125.512 16.6077C125.404 16.2543 125.374 15.8816 125.425 15.5155C125.375 15.1484 125.406 14.7749 125.513 14.4204C125.621 14.066 125.804 13.7388 126.049 13.461C126.294 13.1833 126.596 12.9614 126.934 12.8105C127.272 12.6596 127.639 12.5831 128.01 12.5863C129.57 12.5863 130.511 13.6521 130.511 15.4128V15.7989H126.552V15.8609C126.534 16.0666 126.56 16.2738 126.628 16.4689C126.695 16.6641 126.802 16.843 126.943 16.9943C127.084 17.1455 127.254 17.2657 127.444 17.3471C127.634 17.4286 127.838 17.4694 128.045 17.4671C128.31 17.4989 128.578 17.4513 128.815 17.3302C129.053 17.2092 129.249 17.0202 129.379 16.7874L130.444 16.7874ZM126.552 14.9805H129.384C129.398 14.7923 129.372 14.6033 129.309 14.4256C129.245 14.2479 129.145 14.0854 129.015 13.9487C128.885 13.8119 128.728 13.7038 128.554 13.6313C128.38 13.5589 128.192 13.5237 128.004 13.528C127.812 13.5256 127.622 13.5616 127.445 13.6337C127.268 13.7059 127.107 13.8128 126.971 13.9481C126.836 14.0835 126.729 14.2446 126.657 14.4219C126.585 14.5992 126.549 14.7891 126.552 14.9805H126.552Z" fill="white"/>
</g>
<defs>
<clipPath id="clip0_399_6544">
<rect width="149" height="49.8061" fill="white"/>
</clipPath>
</defs>
</svg>
