<svg width="24" height="25" viewBox="0 0 24 25" fill="none" xmlns="http://www.w3.org/2000/svg">
<path d="M20 11.4697H22C22 6.3397 18.127 2.4707 12.99 2.4707V4.4707C17.052 4.4707 20 7.4137 20 11.4697Z" fill="black"/>
<path d="M13 8.4707C15.103 8.4707 16 9.3677 16 11.4707H18C18 8.2457 16.225 6.4707 13 6.4707V8.4707ZM16.422 13.9137C16.2299 13.739 15.9774 13.6459 15.7178 13.6539C15.4583 13.662 15.212 13.7705 15.031 13.9567L12.638 16.4177C12.062 16.3077 10.904 15.9467 9.71204 14.7577C8.52004 13.5647 8.15904 12.4037 8.05204 11.8317L10.511 9.4377C10.6975 9.25683 10.8062 9.01052 10.8142 8.7509C10.8222 8.49129 10.7289 8.23874 10.554 8.0467L6.85904 3.9837C6.68408 3.79105 6.44092 3.6742 6.18119 3.65796C5.92146 3.64171 5.66564 3.72736 5.46804 3.8967L3.29804 5.7577C3.12515 5.93121 3.02196 6.16215 3.00804 6.4067C2.99304 6.6567 2.70704 12.5787 7.29904 17.1727C11.305 21.1777 16.323 21.4707 17.705 21.4707C17.907 21.4707 18.031 21.4647 18.064 21.4627C18.3086 21.449 18.5394 21.3454 18.712 21.1717L20.572 19.0007C20.7415 18.8032 20.8273 18.5475 20.8113 18.2877C20.7952 18.028 20.6785 17.7848 20.486 17.6097L16.422 13.9137Z" fill="black"/>
</svg>
