<svg width="83" height="78" viewBox="0 0 83 78" fill="none" xmlns="http://www.w3.org/2000/svg">
<g clip-path="url(#clip0_408_1258)">
<path d="M45.7148 70.0068H68.5625V76.8574L81.7842 64.4323L68.5625 52.007V58.8577H45.7148" fill="#24B378"/>
<path d="M68.5625 52.007V56.5773L76.9209 64.4323L68.5625 72.2871V76.8574L81.7841 64.4323L68.5625 52.007Z" fill="#19AC66"/>
<path d="M37.4473 19.1423H14.4375V25.993L1.21582 13.5677L14.4375 1.14258V7.99317H37.4473" fill="#24B378"/>
<path d="M41.5 62.6133C55.3772 62.6133 66.627 52.0413 66.627 39C66.627 25.9587 55.3772 15.3867 41.5 15.3867C27.6228 15.3867 16.373 25.9587 16.373 39C16.373 52.0413 27.6228 62.6133 41.5 62.6133Z" fill="white"/>
<path d="M41.5 15.3867C40.2794 15.3868 39.0604 15.4699 37.8525 15.6352C43.821 16.4584 49.2751 19.2718 53.2188 23.5615C57.1625 27.8513 59.3325 33.331 59.3325 39C59.3325 44.669 57.1625 50.1487 53.2188 54.4385C49.2751 58.7282 43.821 61.5416 37.8525 62.3648C41.2698 62.8358 44.7537 62.6398 48.0867 61.7889C51.4198 60.938 54.5303 59.4505 57.2242 57.4193C59.9182 55.3881 62.1376 52.8568 63.7439 49.9834C65.3503 47.11 66.309 43.9563 66.5604 40.7192C66.8117 37.482 66.3502 34.2309 65.2047 31.1689C64.0592 28.1068 62.2543 25.2996 59.9026 22.9224C57.551 20.5452 54.7031 18.6492 51.5368 17.3526C48.3705 16.056 44.9538 15.3868 41.5 15.3867Z" fill="#EAEAEA"/>
<path d="M54.8847 39.523L41.7009 51.3883C41.5918 51.4864 41.4545 51.5522 41.3059 51.5776C41.1574 51.603 41.0042 51.5868 40.8653 51.5311C40.7265 51.4754 40.6081 51.3826 40.5249 51.2642C40.4417 51.1458 40.3974 51.007 40.3973 50.8651V27.1349C40.3974 26.993 40.4417 26.8542 40.5249 26.7358C40.6081 26.6174 40.7265 26.5246 40.8653 26.4689C41.0042 26.4132 41.1574 26.397 41.3059 26.4224C41.4545 26.4478 41.5918 26.5136 41.7009 26.6117L54.8847 38.477C54.9598 38.5446 55.0196 38.6258 55.0604 38.7157C55.1012 38.8056 55.1223 38.9023 55.1223 39C55.1223 39.0977 55.1012 39.1944 55.0604 39.2843C55.0196 39.3742 54.9598 39.4554 54.8847 39.523Z" fill="#24B378"/>
<path d="M54.8847 38.477L41.7009 26.6117C41.5918 26.5136 41.4545 26.4478 41.3059 26.4224C41.1574 26.397 41.0042 26.4132 40.8653 26.4689C40.7265 26.5246 40.6081 26.6174 40.5249 26.7358C40.4417 26.8542 40.3974 26.993 40.3973 27.1349V27.6269L52.4531 38.4769C52.5282 38.5445 52.588 38.6257 52.6288 38.7156C52.6697 38.8054 52.6907 38.9022 52.6907 38.9999C52.6907 39.0977 52.6697 39.1944 52.6288 39.2843C52.588 39.3742 52.5282 39.4554 52.4531 39.523L40.3973 50.3729V50.8651C40.3974 51.007 40.4417 51.1458 40.5249 51.2642C40.6081 51.3826 40.7265 51.4754 40.8653 51.5311C41.0042 51.5868 41.1574 51.603 41.3059 51.5776C41.4545 51.5522 41.5918 51.4864 41.7009 51.3883L54.8847 39.523C54.9598 39.4554 55.0196 39.3742 55.0604 39.2843C55.1012 39.1944 55.1223 39.0977 55.1223 39C55.1223 38.9023 55.1012 38.8056 55.0604 38.7157C55.0196 38.6258 54.9598 38.5446 54.8847 38.477Z" fill="#19AC66"/>
<path d="M47.2285 39.523L34.0446 51.3883C33.9356 51.4865 33.7982 51.5523 33.6497 51.5778C33.5011 51.6032 33.3479 51.587 33.209 51.5313C33.0701 51.4756 32.9517 51.3827 32.8685 51.2643C32.7853 51.1459 32.741 51.0071 32.741 50.8652V27.1349C32.741 26.993 32.7853 26.8542 32.8685 26.7358C32.9517 26.6173 33.0701 26.5245 33.209 26.4688C33.3479 26.413 33.5011 26.3969 33.6497 26.4223C33.7982 26.4477 33.9356 26.5136 34.0446 26.6117L47.2285 38.477C47.3036 38.5446 47.3634 38.6258 47.4042 38.7157C47.445 38.8056 47.4661 38.9023 47.4661 39C47.4661 39.0978 47.445 39.1945 47.4042 39.2844C47.3634 39.3742 47.3036 39.4554 47.2285 39.523Z" fill="#F9A242"/>
<path d="M47.2284 38.477L34.0446 26.6117C33.9356 26.5136 33.7982 26.4477 33.6497 26.4223C33.5011 26.3969 33.3479 26.413 33.209 26.4688C33.0701 26.5245 32.9517 26.6173 32.8685 26.7358C32.7853 26.8542 32.741 26.993 32.741 27.1349V27.627L44.7967 38.4769C44.8719 38.5445 44.9317 38.6257 44.9725 38.7156C45.0134 38.8055 45.0344 38.9022 45.0344 39C45.0344 39.0977 45.0134 39.1944 44.9725 39.2843C44.9317 39.3742 44.8719 39.4554 44.7967 39.523L32.741 50.3729V50.8652C32.741 51.0071 32.7853 51.1459 32.8685 51.2643C32.9517 51.3827 33.0701 51.4756 33.209 51.5313C33.3479 51.587 33.5011 51.6032 33.6497 51.5778C33.7982 51.5523 33.9356 51.4865 34.0446 51.3883L47.2284 39.523C47.3035 39.4554 47.3633 39.3742 47.4041 39.2844C47.4449 39.1945 47.466 39.0978 47.466 39C47.466 38.9023 47.4449 38.8056 47.4041 38.7157C47.3633 38.6258 47.3035 38.5446 47.2284 38.477Z" fill="#F69531"/>
<path d="M42.5417 25.7857C42.2604 25.5329 41.9063 25.3633 41.5233 25.2979C41.1404 25.2326 40.7454 25.2744 40.3875 25.4182C40.0296 25.562 39.7246 25.8014 39.5102 26.1067C39.2959 26.412 39.1816 26.7697 39.1818 27.1355V29.6531L34.8854 25.7865C34.6043 25.5335 34.2503 25.3636 33.8673 25.2981C33.4844 25.2325 33.0894 25.2742 32.7314 25.4178C32.3734 25.5614 32.0682 25.8007 31.8537 26.106C31.6392 26.4112 31.5249 26.7689 31.5249 27.1347V50.865C31.5247 51.2309 31.639 51.5887 31.8534 51.894C32.0679 52.1994 32.3731 52.4387 32.7312 52.5824C33.0892 52.726 33.4843 52.7676 33.8673 52.702C34.2503 52.6364 34.6043 52.4664 34.8854 52.2133L39.1818 48.3468V50.8644C39.1815 51.2303 39.2957 51.5881 39.5101 51.8935C39.7245 52.1989 40.0296 52.4384 40.3876 52.5821C40.7456 52.7259 41.1407 52.7676 41.5237 52.7021C41.9067 52.6366 42.2608 52.4668 42.542 52.2137L55.7271 40.347C55.9204 40.1727 56.0742 39.9635 56.1793 39.7319C56.2843 39.5003 56.3384 39.2512 56.3383 38.9994C56.3382 38.7477 56.284 38.4985 56.1788 38.267C56.0736 38.0354 55.9197 37.8263 55.7263 37.6521L42.5417 25.7857ZM33.9567 49.885V28.1149L46.0517 38.9999L33.9567 49.885ZM41.6134 49.8851V46.1582L48.0693 40.3481C48.2629 40.1739 48.417 39.9646 48.5223 39.7329C48.6276 39.5012 48.6818 39.2518 48.6818 38.9999C48.6818 38.7479 48.6276 38.4986 48.5223 38.2669C48.417 38.0352 48.2629 37.8259 48.0693 37.6516L41.6134 31.8417V28.1148L53.7084 38.9999L41.6134 49.8851ZM82.644 63.6243L69.4223 51.1991C69.2523 51.0393 69.0356 50.9304 68.7998 50.8863C68.5639 50.8422 68.3194 50.8648 68.0973 50.9513C67.8751 51.0378 67.6852 51.1842 67.5516 51.3722C67.418 51.5601 67.3466 51.781 67.3467 52.007V57.7153H58.7252C61.5872 55.395 63.8831 52.5221 65.4566 49.2923C67.03 46.0626 67.8439 42.552 67.8427 38.9999C67.8427 25.3496 56.0254 14.244 41.4999 14.244C36.5723 14.2388 31.7432 15.5405 27.5676 17.9993H14.4374C14.1149 17.9993 13.8057 18.1197 13.5777 18.3339C13.3497 18.5482 13.2216 18.8388 13.2216 19.1419V23.2344L2.9351 13.5676L13.2216 3.90094V7.99335C13.2216 8.29638 13.3497 8.587 13.5777 8.80128C13.8057 9.01555 14.1149 9.13593 14.4374 9.13593H36.2946C36.6171 9.13593 36.9263 9.01555 37.1543 8.80128C37.3823 8.587 37.5104 8.29638 37.5104 7.99335C37.5104 7.69032 37.3823 7.3997 37.1543 7.18543C36.9263 6.97115 36.6171 6.85078 36.2946 6.85078H15.6532V1.14246C15.6532 0.916458 15.5819 0.695532 15.4483 0.50762C15.3147 0.319708 15.1248 0.173251 14.9026 0.0867738C14.6805 0.000296067 14.436 -0.0223183 14.2001 0.0217908C13.9642 0.0658999 13.7476 0.174751 13.5776 0.334577L0.355935 12.7597C0.127954 12.974 -0.00012207 13.2646 -0.00012207 13.5676C-0.00012207 13.8706 0.127954 14.1612 0.355935 14.3755L13.5776 26.8006C13.7476 26.9605 13.9642 27.0693 14.2001 27.1134C14.436 27.1575 14.6805 27.1349 14.9026 27.0485C15.1248 26.962 15.3147 26.8155 15.4483 26.6276C15.5819 26.4397 15.6532 26.2188 15.6532 25.9928V20.2844H24.2747C21.4127 22.6047 19.1167 25.4777 17.5433 28.7074C15.9699 31.9372 15.156 35.4478 15.1572 38.9999C15.1572 52.6503 26.9745 63.7557 41.4999 63.7557C46.4275 63.7609 51.2567 62.4593 55.4323 60.0005H68.5625C68.8849 60.0005 69.1942 59.8801 69.4222 59.6658C69.6502 59.4515 69.7783 59.1609 69.7783 58.8579V54.7655L80.0648 64.4321L69.7783 74.099V70.0064C69.7783 69.7034 69.6502 69.4128 69.4222 69.1985C69.1942 68.9842 68.8849 68.8638 68.5625 68.8638H46.7053C46.3828 68.8638 46.0736 68.9842 45.8456 69.1985C45.6175 69.4128 45.4895 69.7034 45.4895 70.0064C45.4895 70.3094 45.6175 70.6001 45.8456 70.8143C46.0736 71.0286 46.3828 71.149 46.7053 71.149H67.3467V76.8573C67.3466 77.0833 67.418 77.3042 67.5516 77.4921C67.6852 77.68 67.8751 77.8265 68.0973 77.913C68.3194 77.9995 68.5639 78.0221 68.7998 77.978C69.0356 77.9339 69.2523 77.825 69.4223 77.6652L82.644 65.24C82.8719 65.0257 83 64.7352 83 64.4321C83 64.1291 82.8719 63.8385 82.644 63.6243ZM41.4999 61.4706C28.3153 61.4706 17.5888 51.3903 17.5888 38.9999C17.5888 26.6095 28.3153 16.5292 41.4999 16.5292C54.6846 16.5292 65.4111 26.6098 65.4111 38.9999C65.4111 51.39 54.6846 61.4706 41.4999 61.4706Z" fill="#3C3B41"/>
</g>
<defs>
<clipPath id="clip0_408_1258">
<rect width="83" height="78" fill="white"/>
</clipPath>
</defs>
</svg>
