<svg width="81" height="77" viewBox="0 0 81 77" fill="none" xmlns="http://www.w3.org/2000/svg">
<path d="M67.5 50.9654C67.2916 51.1647 67.0437 51.3229 66.7707 51.4308C66.4977 51.5388 66.205 51.5943 65.9093 51.5943C65.6136 51.5943 65.3209 51.5388 65.0479 51.4308C64.7749 51.3229 64.527 51.1647 64.3185 50.9654L61.137 47.941C60.9274 47.7429 60.761 47.5072 60.6475 47.2477C60.5339 46.9882 60.4755 46.7099 60.4755 46.4288C60.4755 46.1478 60.5339 45.8695 60.6475 45.61C60.761 45.3504 60.9274 45.1148 61.137 44.9166L67.5 38.8679C67.7088 38.6691 67.9568 38.5114 68.2297 38.4037C68.5027 38.2961 68.7953 38.2407 69.0908 38.2407C69.3863 38.2407 69.6789 38.2961 69.9519 38.4037C70.2248 38.5114 70.4728 38.6691 70.6815 38.8679L73.863 41.8923C74.0727 42.0904 74.2391 42.3261 74.3526 42.5856C74.4662 42.8451 74.5246 43.1234 74.5246 43.4045C74.5246 43.6855 74.4662 43.9638 74.3526 44.2233C74.2391 44.4829 74.0727 44.7185 73.863 44.9166L67.5 50.9654ZM33.75 18.8821C33.5416 19.0814 33.2937 19.2396 33.0207 19.3475C32.7477 19.4554 32.455 19.511 32.1593 19.511C31.8636 19.511 31.5709 19.4554 31.2979 19.3475C31.0249 19.2396 30.777 19.0814 30.5685 18.8821L27.387 15.8577C27.1774 15.6595 27.011 15.4239 26.8975 15.1644C26.7839 14.9049 26.7255 14.6266 26.7255 14.3455C26.7255 14.0644 26.7839 13.7861 26.8975 13.5266C27.011 13.2671 27.1774 13.0315 27.387 12.8333L33.75 6.78453C33.9588 6.58573 34.2068 6.42802 34.4797 6.32041C34.7527 6.2128 35.0453 6.15741 35.3408 6.15741C35.6363 6.15741 35.9289 6.2128 36.2019 6.32041C36.4748 6.42802 36.7228 6.58573 36.9315 6.78453L40.113 9.80892C40.3227 10.0071 40.4891 10.2427 40.6026 10.5022C40.7162 10.7618 40.7746 11.0401 40.7746 11.3211C40.7746 11.6022 40.7162 11.8805 40.6026 12.14C40.4891 12.3995 40.3227 12.6351 40.113 12.8333L33.75 18.8821Z" fill="#66757F"/>
<path d="M4.50002 47.0555C9.00002 47.0555 29.25 49.1944 29.25 49.1944C29.25 49.1944 31.5 68.4444 31.5 72.7222C31.5 77 27 77 24.75 74.8611C22.5 72.7222 15.75 62.0278 15.75 62.0278C15.75 62.0278 4.50002 55.6111 2.25002 53.4722C1.69277e-05 51.3333 1.69277e-05 47.0555 4.50002 47.0555ZM9.00002 12.9167C15.75 12.8333 65.25 14.9722 65.25 14.9722C65.25 14.9722 67.329 62.0278 67.4145 68.4444C67.5 74.8611 61.1978 77.0043 58.725 68.4466C56.2523 59.8889 47.25 32.0833 47.25 32.0833C47.25 32.0833 15.8513 22.6359 8.98877 21.1707C1.66297e-05 19.25 2.24777 12.998 9.00002 12.9167Z" fill="#55ACEE"/>
<path d="M60.75 6.41668C65.25 2.1389 76.5 1.22786e-05 78.75 2.1389C81 4.27779 78.75 14.9722 74.25 19.25C69.75 23.5278 31.5001 57.75 31.5001 57.75C31.5001 57.75 16.8751 67.375 13.5001 64.1667C10.1251 60.9583 20.2501 47.0556 20.2501 47.0556C20.2501 47.0556 56.25 10.6945 60.75 6.41668Z" fill="#CCD6DD"/>
<path d="M31.5 47.0556C31.5 47.0556 32.625 48.125 22.5 57.75C12.375 67.375 11.25 66.3056 11.25 66.3056C11.25 66.3056 10.125 65.2361 20.25 55.6111C30.375 45.9861 31.5 47.0556 31.5 47.0556ZM65.25 8.55558C67.0402 8.55558 68.7571 9.23162 70.0229 10.435C71.2888 11.6383 72 13.2704 72 14.9722H73.8112C74.0677 14.2985 74.25 13.5927 74.25 12.8334C74.25 11.1315 73.5388 9.49944 72.2729 8.29609C71.0071 7.09273 69.2902 6.41669 67.5 6.41669C66.7012 6.41669 65.9587 6.58994 65.25 6.83377V8.55558Z" fill="#66757F"/>
</svg>
