<svg width="116" height="106" viewBox="0 0 116 106" fill="none" xmlns="http://www.w3.org/2000/svg">
<path opacity="0.3" d="M7.25 62.4958L38.9083 45.9333L106.333 76.85L72.5 92.3083L7.25 62.4958Z" fill="black"/>
<path d="M12.8083 55.2084V63.6L18.85 60.7292V52.5583L12.8083 55.2084Z" fill="#2D3134"/>
<path opacity="0.39" d="M12.8083 55.2084V63.6L18.85 60.7292V52.5583L12.8083 55.2084Z" fill="black"/>
<path d="M63.3166 72.6541C61.625 71.7708 59.9333 71.7708 58.725 72.2125L55.3416 73.7583C53.8916 74.2 53.1666 75.525 53.1666 77.2916C53.1666 80.6041 56.3083 84.8 59.9333 86.5666C61.8666 87.45 63.5583 87.45 64.7666 87.0083C64.7666 87.0083 68.15 85.4625 68.3916 85.2416C69.6 84.5791 70.0833 83.475 70.0833 81.9291C70.0833 78.3958 66.9416 74.2 63.3166 72.6541Z" fill="#2D3134"/>
<path opacity="0.39" d="M64.7667 86.7875C65.2501 86.5667 68.1501 85.2417 68.3917 85.2417C69.6001 84.5792 70.0834 83.475 70.0834 81.9292C70.0834 80.6042 69.6001 79.0583 68.8751 77.7333L65.4917 79.2792C66.2167 80.6042 66.7001 82.15 66.7001 83.475C66.7001 85.0208 65.9751 86.3458 64.7667 86.7875Z" fill="black"/>
<path d="M65.0083 82.5917C65.0083 85.2417 62.8333 86.125 59.9333 84.8C57.0333 83.475 54.8583 80.3833 54.8583 77.7333C54.8583 75.0833 57.0333 74.2 59.9333 75.525C62.8333 76.85 65.0083 79.9417 65.0083 82.5917Z" fill="#999999"/>
<path opacity="0.15" d="M60.4166 84.8C57.5166 83.475 55.3416 80.3833 55.3416 77.7333C55.3416 76.4083 55.8249 75.525 56.7916 75.0833C55.5833 75.3041 54.8583 76.4083 54.8583 77.7333C54.8583 80.3833 57.0333 83.475 59.9333 84.8C61.3833 85.4625 62.5916 85.4625 63.5583 85.0208C62.5916 85.4625 61.6249 85.2416 60.4166 84.8Z" fill="black"/>
<path d="M62.5917 81.0458C62.5917 82.15 61.625 82.5916 60.4167 81.9291C59.2084 81.2666 58.2417 80.1625 58.2417 79.0583C58.2417 77.9541 59.2084 77.5125 60.4167 78.175C61.625 78.8375 62.5917 79.9416 62.5917 81.0458Z" fill="#2D3134"/>
<path opacity="0.39" d="M62.5917 81.0458C62.5917 82.15 61.625 82.5916 60.4167 81.9291C59.2084 81.2666 58.2417 80.1625 58.2417 79.0583C58.2417 77.9541 59.2084 77.5125 60.4167 78.175C61.625 78.8375 62.5917 79.9416 62.5917 81.0458Z" fill="black"/>
<path d="M62.1083 81.2666C62.1083 82.3708 61.1416 82.8125 59.9333 82.15C58.725 81.7083 57.7583 80.3833 57.7583 79.2791C57.7583 78.175 58.725 77.7333 59.9333 78.3958C61.1416 78.8375 62.1083 80.1625 62.1083 81.2666Z" fill="#2D3134"/>
<path opacity="0.06" d="M66.7 83.475C66.7 86.7875 63.5583 88.3333 59.9333 86.5667C56.3083 84.8 53.1666 80.6042 53.1666 77.2917C53.1666 73.9792 56.3083 72.4333 59.9333 74.2C63.5583 75.7458 66.7 79.9417 66.7 83.475Z" fill="black"/>
<path d="M23.4416 54.325C21.75 53.4416 20.0583 53.4416 18.85 53.8833L15.4666 55.4291C14.2583 55.8708 13.2916 57.1958 13.2916 58.9625C13.2916 62.275 16.4333 66.4708 20.0583 68.2375C21.9916 69.1208 23.6833 69.1208 24.8916 68.6791C24.8916 68.6791 28.275 67.1333 28.5166 66.9125C29.725 66.25 30.2083 65.1458 30.2083 63.6C30.2083 60.2875 27.0666 56.0916 23.4416 54.325Z" fill="#2D3134"/>
<path opacity="0.39" d="M24.8917 68.6792C25.3751 68.4583 28.2751 67.1333 28.5167 67.1333C29.7251 66.4708 30.2084 65.3667 30.2084 63.8208C30.2084 62.4958 29.7251 60.95 29.0001 59.625L25.6167 61.1708C26.3417 62.4958 26.8251 64.0417 26.8251 65.3667C26.8251 66.9125 26.1001 68.0167 24.8917 68.6792Z" fill="black"/>
<path d="M25.1333 64.4833C25.1333 67.1333 22.9583 68.0167 20.0583 66.6917C17.1583 65.3667 14.9833 62.275 14.9833 59.625C14.9833 56.975 17.1583 56.0917 20.0583 57.4167C22.9583 58.7417 25.1333 61.8333 25.1333 64.4833Z" fill="#999999"/>
<path opacity="0.15" d="M20.5416 66.4708C17.6416 65.1458 15.4666 62.0541 15.4666 59.4041C15.4666 58.0791 15.9499 57.1958 16.9166 56.7542C15.7083 56.975 14.9833 58.0791 14.9833 59.4041C14.9833 62.0541 17.1583 65.1458 20.0583 66.4708C21.5083 67.1333 22.7166 67.1333 23.6833 66.6917C22.7166 67.1333 21.7499 67.1333 20.5416 66.4708Z" fill="black"/>
<path d="M22.7167 62.9375C22.7167 64.0416 21.75 64.4833 20.5417 63.8208C19.3334 63.3791 18.3667 62.0541 18.3667 60.95C18.3667 59.8458 19.3334 59.4041 20.5417 60.0666C21.75 60.5083 22.7167 61.8333 22.7167 62.9375Z" fill="#2D3134"/>
<path opacity="0.39" d="M22.7167 62.9375C22.7167 64.0416 21.75 64.4833 20.5417 63.8208C19.3334 63.3791 18.3667 62.0541 18.3667 60.95C18.3667 59.8458 19.3334 59.4041 20.5417 60.0666C21.75 60.5083 22.7167 61.8333 22.7167 62.9375Z" fill="black"/>
<path d="M22.2333 62.9375C22.2333 64.0416 21.2666 64.4833 20.0583 63.8208C18.85 63.1583 17.8833 62.0541 17.8833 60.95C17.8833 59.8458 18.85 59.4041 20.0583 60.0666C21.2666 60.7291 22.2333 62.0541 22.2333 62.9375Z" fill="#2D3134"/>
<path opacity="0.06" d="M26.825 65.1458C26.825 68.4583 23.6833 70.0042 20.0583 68.2375C16.4333 66.4708 13.2916 62.275 13.2916 58.9625C13.2916 55.65 16.4333 54.1042 20.0583 55.8708C23.6833 57.6375 26.825 61.8333 26.825 65.1458Z" fill="black"/>
<path d="M41.0833 2.20831L7.25 17.6666V51.4541L50.75 71.3291L84.5833 55.2083V22.0833L41.0833 2.20831Z" fill="#FF9900"/>
<path d="M7.25 48.5833V53L50.75 72.875V68.4583L7.25 48.5833ZM84.5833 53V57.4166L50.75 72.875V68.4583L84.5833 53Z" fill="#2D3134"/>
<path opacity="0.06" d="M7.25 17.6667V53L50.75 72.875V37.5417L7.25 17.6667Z" fill="black"/>
<path opacity="0.39" d="M84.5833 22.0833V57.4166L50.75 72.875V37.5416L84.5833 22.0833Z" fill="black"/>
<path d="M101.5 39.75L87 33.125L53.1666 48.5833V73.5375C53.1666 74.2 54.1333 74.6417 54.8583 74.2C57.7583 71.9917 62.8333 73.5375 66.4583 77.5125C68.6333 79.9417 69.6 82.5917 69.6 84.8L72.5 86.125L106.333 70.6667V53L101.5 39.75Z" fill="#E5E5E5"/>
<path d="M73.4667 67.3542L69.3584 56.3125C69.1167 55.8708 69.3584 55.65 69.8417 55.4292L100.05 41.7375C100.533 41.5167 101.017 41.7375 101.258 42.1792L105.125 52.5583C105.367 53 105.125 53.2208 104.642 53.4417L74.675 67.7958C74.1917 68.0167 73.4667 67.7958 73.4667 67.3542Z" fill="#3399CC"/>
<path opacity="0.15" d="M79.025 51.2333L99.8084 41.7375C100.292 41.5167 100.775 41.7375 101.017 42.1792L104.642 51.8958L79.025 51.2333Z" fill="black"/>
<path d="M104.883 52.5583L104.642 51.8958C104.642 52.3375 104.642 52.5583 104.158 52.7791L74.1916 67.1333C73.7083 67.3541 73.2249 67.1333 72.9833 66.6916L73.2249 67.3541C73.4666 67.7958 73.9499 68.0166 74.4333 67.7958L104.4 53.4416C104.883 53.2208 105.125 53 104.883 52.5583Z" fill="#2D3134"/>
<path d="M80.9584 66.25L97.875 58.5208V71.3291L80.9584 79.0583V66.25Z" fill="white"/>
<path d="M82.1666 77.2916L96.6666 70.6666V60.2875L82.1666 66.9125V77.2916Z" fill="#2D3134"/>
<path d="M106.333 70.6667V66.25L72.5 81.7083V86.125L106.333 70.6667ZM67.6666 83.9167L72.5 86.125V81.7083L67.6666 79.5V83.9167Z" fill="#2D3134"/>
<path d="M82.1666 77.2917V79.5L96.6666 72.875V70.6667L82.1666 77.2917Z" fill="white"/>
<path d="M66.4584 55.8708L57.2751 51.675C57.0334 51.4542 56.55 51.675 56.55 52.1167V58.7417C56.55 59.1833 56.7917 59.625 57.2751 59.625L60.4167 61.1708C60.6584 61.3917 60.9 61.3917 61.1417 61.6125L64.2834 65.1458H64.5251L69.8417 67.575C70.0834 67.7958 70.5667 67.3542 70.325 67.1333L66.2167 56.0917C66.7 56.0917 66.7 55.8708 66.4584 55.8708Z" fill="#3399CC"/>
<path opacity="0.15" d="M70.8083 66.9125L65.975 64.7042H65.7333L62.5916 61.1708C62.35 60.95 62.1083 60.7292 61.8666 60.7292L58.725 59.1833C58.2416 58.9625 58 58.7417 58 58.3V51.8958L57.5166 51.675C57.275 51.4542 56.7916 51.675 56.7916 52.1167V58.7417C56.7916 59.1833 57.0333 59.625 57.5166 59.625L60.6583 61.1708C60.9 61.3917 61.1416 61.3917 61.3833 61.6125L64.525 65.1458H64.7666L70.0833 67.575C70.5666 67.7958 70.8083 67.575 70.8083 66.9125Z" fill="black"/>
<path d="M72.5 77.2916V81.7083L71.2916 81.2666V76.85L72.5 77.2916Z" fill="#FFCC00"/>
<path d="M82.1666 68.4583V69.1208L96.6666 62.4958V61.8333L82.1666 68.4583ZM82.1666 70.6666V71.3291L96.6666 64.7041V64.0416L82.1666 70.6666ZM82.1666 72.875V73.5375L96.6666 66.9125V66.25L82.1666 72.875ZM82.1666 75.0833V75.7458L96.6666 69.1208V68.4583L82.1666 75.0833Z" fill="#E5E5E5"/>
<path opacity="0.5" d="M56.7916 62.4958V63.6L59.2083 64.7042V63.6L56.7916 62.4958Z" fill="#2D3134"/>
<path opacity="0.5" d="M59.2083 65.1458L56.7916 64.0416V63.6L59.2083 64.7041V65.1458Z" fill="white"/>
<path d="M90.625 52.7792C90.3833 52.5584 90.1416 52.5584 89.9 52.7792L80.7167 62.275C80.475 62.4959 80.475 62.7167 80.7167 62.9375C80.9583 63.1584 81.2 63.1584 81.4416 62.9375L83.8583 60.2875V62.4959H84.5833V59.625L90.625 53.2209C90.8666 53.2209 90.8666 52.7792 90.625 52.7792ZM99.325 48.3625C99.0833 48.1417 98.8416 48.1417 98.6 48.3625L89.4166 57.8584C89.175 58.0792 89.175 58.3 89.4166 58.5209C89.6583 58.7417 89.9 58.7417 90.1416 58.5209L92.3166 56.3125V58.7417H93.0416V55.65L99.325 49.025C99.5666 48.8042 99.5666 48.5834 99.325 48.3625Z" fill="#2D3134"/>
<path d="M101.5 68.4583L106.333 66.25V61.8333L103.917 62.9375C102.467 63.6 101.5 64.925 101.5 66.4708V68.4583Z" fill="white"/>
<path opacity="0.3" d="M102.398 64.5825C101.724 65.3392 101.597 66.2647 102.115 66.6497C102.633 67.0346 103.599 66.7333 104.273 65.9765C104.947 65.2198 105.073 64.2943 104.556 63.9094C104.038 63.5244 103.072 63.8258 102.398 64.5825Z" fill="#2D3134"/>
<path opacity="0.3" d="M103.607 64.5822C102.933 65.339 102.806 66.2645 103.324 66.6494C103.842 67.0344 104.808 66.733 105.482 65.9763C106.156 65.2196 106.282 64.2941 105.765 63.9091C105.247 63.5242 104.281 63.8255 103.607 64.5822Z" fill="#2D3134"/>
<path opacity="0.3" d="M101.5 68.4583L106.333 66.25V61.8333L101.5 68.4583Z" fill="white"/>
<path d="M72.5 81.7083L77.3333 79.5V77.5125C77.3333 76.4083 76.125 75.7458 74.9167 76.1875L72.5 77.2916V81.7083Z" fill="white"/>
<path opacity="0.3" d="M74.6084 77.8296C73.9343 78.5863 73.8075 79.5118 74.3251 79.8967C74.8426 80.2817 75.8086 79.9803 76.4827 79.2236C77.1567 78.4669 77.2836 77.5414 76.766 77.1564C76.2484 76.7715 75.2824 77.0728 74.6084 77.8296Z" fill="#2D3134"/>
<path opacity="0.3" d="M73.3994 77.8298C72.7254 78.5865 72.5985 79.512 73.1161 79.897C73.6337 80.2819 74.5996 79.9806 75.2737 79.2239C75.9477 78.4671 76.0746 77.5416 75.557 77.1567C75.0394 76.7717 74.0734 77.0731 73.3994 77.8298Z" fill="#2D3134"/>
<path opacity="0.3" d="M72.5 81.7084L77.3333 79.5L72.5 77.2917V81.7084Z" fill="white"/>
<path opacity="0.06" d="M67.6666 55.2083L53.1666 48.5833V73.5375C53.1666 74.2 54.1333 74.6416 54.8583 74.2C57.7583 71.9916 62.8333 73.5375 66.4583 77.5125C67.1833 78.175 67.6666 78.8375 67.9083 79.7208L67.6666 79.5V83.9166L72.5 86.125V68.4583L67.6666 55.2083Z" fill="black"/>
<path opacity="0.39" d="M101.5 39.75L67.6666 55.2083L72.5 68.4583V86.125L106.333 70.6667V53L101.5 39.75Z" fill="black"/>
</svg>
