<svg width="126" height="90" viewBox="0 0 126 90" fill="none" xmlns="http://www.w3.org/2000/svg">
<path d="M98.9457 33.1537C98.9447 32.8494 98.8843 32.5488 98.7685 32.2714C98.6527 31.9939 98.4841 31.7459 98.2736 31.5434C98.0621 31.3419 97.8136 31.1907 97.5443 31.0995C97.2751 31.0084 96.991 30.9794 96.7107 31.0144L28.7656 39.6461C28.2791 39.7082 27.8307 39.9607 27.5053 40.3557C27.1799 40.7507 27.0001 41.2608 27 41.7893V61.2101C27 69.7268 49.629 72 63 72C76.3704 72 99 69.7268 99 61.2101V61.2058L98.9457 33.1537Z" fill="#0B4870"/>
<path d="M99 40H63V71.9996L63.055 72C76.0762 72 97.8674 69.8664 99 61.9791V40Z" fill="#0B4870"/>
<path d="M121.987 20.7771L71.3431 1.53401C65.9625 -0.511336 60.0371 -0.511336 54.6565 1.53401L4.01425 20.7771C1.57766 21.7021 0 24.1446 0 27.001C0 29.8559 1.57733 32.2988 4.01425 33.2238L54.6569 52.4662C57.3426 53.4837 60.1618 54.002 63.0002 54C65.8385 54.0023 68.6576 53.4841 71.3431 52.4662L121.988 33.2238C124.425 32.2988 126 29.8563 126 27.001C125.999 24.1446 124.424 21.7021 121.987 20.7771Z" fill="#0E538C"/>
<path d="M101 75C100.737 75 100.477 74.9427 100.234 74.8314C99.9918 74.72 99.7713 74.5567 99.5856 74.3509C99.3999 74.1451 99.2526 73.9007 99.1522 73.6318C99.0517 73.3629 99.0001 73.0747 99.0001 72.7836V43.8229C99.0001 43.3609 98.8699 42.9103 98.6276 42.5343C98.3853 42.1583 98.0431 41.8755 97.6488 41.7254L62.3519 28.3145C61.8502 28.1237 61.4374 27.72 61.2041 27.1921C60.9708 26.6642 60.936 26.0553 61.1075 25.499C61.467 24.3411 62.6019 23.7215 63.6487 24.1217L98.9452 37.5333C100.128 37.9826 101.155 38.8304 101.882 39.9582C102.609 41.086 103 42.4373 103 43.8233V72.784C103 73.0751 102.948 73.3633 102.848 73.6322C102.747 73.9011 102.6 74.1454 102.414 74.3512C102.228 74.557 102.008 74.7202 101.765 74.8315C101.522 74.9429 101.262 75.0001 101 75Z" fill="#2A94F4"/>
<path d="M102 90H98.0001C97.7374 90 97.4773 89.9426 97.2346 89.8309C96.9919 89.7192 96.7713 89.5555 96.5856 89.3491C96.3999 89.1428 96.2525 88.8977 96.1521 88.6281C96.0516 88.3584 95.9999 88.0694 96 87.7775V74.4446C96 71.99 97.7905 70 99.9998 70C102.21 70 104 71.99 104 74.4446V87.7775C104 88.0694 103.948 88.3583 103.848 88.628C103.748 88.8976 103.6 89.1426 103.415 89.349C103.229 89.5554 103.008 89.7191 102.766 89.8308C102.523 89.9425 102.263 90 102 90Z" fill="#FFBE55"/>
<path d="M63 31C67.4183 31 71 28.9853 71 26.5C71 24.0147 67.4183 22 63 22C58.5817 22 55 24.0147 55 26.5C55 28.9853 58.5817 31 63 31Z" fill="#D3D3D3"/>
</svg>
